<svg width="1634" height="331" viewBox="0 0 1634 331" fill="none" xmlns="http://www.w3.org/2000/svg">
<path d="M162.621 217.593C151.405 217.593 140.852 213.252 132.902 205.324C124.951 197.396 120.597 186.872 120.597 175.688V133.784H141.751V175.688C141.751 187.156 151.121 196.546 162.621 196.546C174.121 196.546 183.539 187.203 183.539 175.688C183.539 164.174 174.168 154.878 162.621 154.878H149.702V133.784H162.621C185.81 133.784 204.645 152.613 204.645 175.688C204.645 198.764 185.763 217.593 162.621 217.593ZM99.6801 104.762H112.647V125.856H99.6801C76.4913 125.856 57.6563 107.027 57.6563 83.9511C57.6563 60.8751 76.4913 42.0463 99.6801 42.0463C110.896 42.0463 121.449 46.435 129.4 54.3629C137.35 62.2908 141.751 72.8142 141.751 83.9982V125.903H120.597V83.9982C120.597 72.5311 111.227 63.1402 99.6801 63.1402C88.133 63.1402 78.8102 72.4839 78.8102 83.9982C78.8102 95.5126 88.1803 104.809 99.6801 104.809M131.151 4.71899C61.9628 4.71899 5.69434 60.8279 5.69434 129.82C5.69434 198.812 61.9628 254.921 131.151 254.921C200.339 254.921 256.607 198.812 256.607 129.82C256.607 60.8279 200.291 4.71899 131.151 4.71899Z" fill="#502BE5"/>
<path d="M1073.42 186.306C1066.09 186.306 1060.5 191.875 1060.5 199.189C1060.5 206.503 1066.09 212.072 1073.42 212.072C1080.76 212.072 1086.06 206.503 1086.06 199.189C1086.06 191.875 1080.47 186.306 1073.42 186.306Z" fill="#502BE5"/>
<path d="M1161.26 192.111C1137.45 192.111 1117.2 170.403 1117.2 143.41C1117.2 116.418 1137.21 95.1822 1161.26 95.1822C1185.3 95.1822 1205.03 116.371 1205.03 143.41C1205.03 170.45 1185.3 192.111 1161.26 192.111ZM1161.49 75.504C1143.51 75.504 1127.09 84.0926 1116.44 97.4474V20.9995H1095.66V143.41C1095.66 182.012 1124.25 211.789 1161.21 211.789C1198.17 211.789 1226.52 182.531 1226.52 143.41C1226.52 104.29 1197.65 75.504 1161.44 75.504" fill="#502BE5"/>
<path d="M1304.79 192.11C1280.46 192.11 1260.73 171.158 1260.73 143.882C1260.73 116.606 1280.46 95.1821 1304.79 95.1821C1329.11 95.1821 1348.85 116.89 1348.85 143.882C1348.85 170.875 1328.83 192.11 1304.79 192.11ZM1304.79 75.5039C1268.59 75.5039 1239.25 104.762 1239.25 143.882C1239.25 183.003 1268.35 212.025 1304.32 212.025C1322.77 212.025 1339.24 202.681 1349.37 188.571V208.769H1370.14V143.882C1370.14 105.517 1341.8 75.5039 1304.84 75.5039" fill="#502BE5"/>
<path d="M1442.5 75.5039C1411.36 75.5039 1388.08 96.9754 1388.08 129.772V208.769H1409.33V129.017C1409.33 109.575 1422.25 95.4653 1442.5 95.4653C1462.76 95.4653 1475.39 109.622 1475.39 129.017V208.769H1496.64V129.772C1496.64 96.9754 1473.59 75.5039 1442.46 75.5039" fill="#502BE5"/>
<path d="M1555.23 142.75L1630 79.94H1599.38L1536.06 133.218V25.4355H1514.72V209.005H1536.06V152.282L1601.65 209.005H1632.41L1555.23 142.75Z" fill="#502BE5"/>
<path d="M405.63 138.597H359.537L382.773 75.1737L405.63 138.597ZM370.279 41.2913L306.581 209.571H333.461L350.924 161.956H413.959L431.233 209.571H458.775L396.307 41.2913H370.279Z" fill="#502BE5"/>
<path d="M492.186 29.541H467.341V209.618H492.186V29.541Z" fill="#502BE5"/>
<path d="M629.189 168.28L605.007 83.4792H580.635L556.452 168.28L532.269 83.4792H506.194L543.533 207.872L544.006 209.571H568.425L592.608 123.26L616.743 209.571H641.399L679.211 83.4792H653.135L629.189 168.28Z" fill="#502BE5"/>
<path d="M771.872 146.572V160.493C771.399 181.54 751.712 188.996 733.397 188.996C725.589 188.996 707.416 187.391 707.416 172.527C707.416 164.74 710.824 155.633 737.562 153.934C749.582 153.132 762.833 151.857 771.872 146.525M796.244 187.344V120.429C796.244 95.3237 776.983 80.3645 744.708 80.3645C712.433 80.3645 691.137 96.9754 689.622 122.647L689.481 125.148H714.941L715.178 123.024C717.213 105.989 734.391 103.44 744.471 103.44C761.887 103.44 771.872 108.773 771.872 118.022C771.872 124.11 767.471 130.575 734.675 132.132C700.27 133.925 682.808 147.516 682.808 172.432C682.808 191.686 695.917 212.261 732.687 212.261C749.44 212.261 763.117 207.589 772.629 198.623C773.197 202.115 774.096 205.324 775.421 208.061L776.084 209.429H800.976L799.651 206.173C797.805 201.596 796.291 192.96 796.291 187.25" fill="#502BE5"/>
<path d="M868.224 175.452L834.482 83.4791H807.602L855.068 206.503L849.01 222.642C843.994 236.233 838.126 240.056 823.787 238.97L821.231 238.781V261.857L823.361 262.093C826.153 262.376 828.803 262.518 831.311 262.518C851.613 262.518 864.06 252.844 872.152 231.325L927.947 83.4319H901.304L868.224 175.405V175.452Z" fill="#502BE5"/>
<path d="M987.197 131.33C962.825 127.507 958.518 124.534 958.518 118.164C958.518 110 969.592 103.582 983.789 103.582C997.987 103.582 1008.3 110.047 1010.76 121.278L1011.19 123.166H1036.08L1035.8 120.523C1033.1 95.7958 1013.18 80.459 983.789 80.459C949.337 80.459 933.673 100.373 933.673 118.872C933.673 143.363 952.603 151.008 983.222 155.397C1014.22 159.549 1014.22 166.109 1014.22 171.866C1014.22 180.502 1004.56 189.279 986.156 189.279C969.261 189.279 956.815 181.068 954.496 168.374L954.117 166.392H929.083L929.414 169.082C932.821 195.555 955.111 212.638 986.156 212.638C1017.2 212.638 1038.4 195.791 1038.4 170.686C1038.4 139.399 1010.01 134.916 987.244 131.33" fill="#502BE5"/>
<path d="M1618.41 322.402V308.67L1617.55 311.313L1628.11 296.731C1628.44 296.259 1628.63 295.834 1628.58 295.41C1628.58 294.985 1628.39 294.654 1628.11 294.371C1627.82 294.088 1627.4 293.947 1626.88 293.947C1626.4 293.947 1625.98 294.041 1625.69 294.23C1625.36 294.419 1625.08 294.749 1624.75 295.221L1615.99 307.301H1616.99L1608.23 295.221C1607.9 294.796 1607.57 294.466 1607.24 294.23C1606.91 294.041 1606.53 293.947 1606.1 293.947C1605.58 293.947 1605.16 294.088 1604.82 294.371C1604.49 294.654 1604.35 295.032 1604.35 295.457C1604.35 295.881 1604.45 296.306 1604.73 296.731L1615.28 311.313L1614.43 308.67V322.402C1614.43 323.063 1614.62 323.582 1614.95 323.959C1615.28 324.337 1615.76 324.479 1616.42 324.479C1617.74 324.479 1618.41 323.771 1618.41 322.402ZM1577 323.959C1577.33 323.629 1577.47 323.157 1577.47 322.544V299.373H1576.48L1594.51 323.252C1594.84 323.676 1595.12 323.96 1595.41 324.148C1595.69 324.337 1596.07 324.431 1596.54 324.431C1597.02 324.431 1597.39 324.243 1597.73 323.912C1598.01 323.582 1598.15 323.11 1598.15 322.497V295.787C1598.15 295.174 1598.01 294.702 1597.68 294.371C1597.35 294.041 1596.92 293.899 1596.31 293.899C1595.69 293.899 1595.27 294.088 1594.93 294.371C1594.6 294.702 1594.46 295.174 1594.46 295.787V318.91H1595.55L1577.47 295.032C1577.14 294.607 1576.86 294.324 1576.62 294.135C1576.38 293.994 1576 293.899 1575.53 293.899C1575.01 293.899 1574.58 294.088 1574.3 294.419C1573.97 294.749 1573.83 295.268 1573.83 295.881V322.497C1573.83 323.063 1574.02 323.535 1574.3 323.912C1574.63 324.243 1575.06 324.431 1575.63 324.431C1576.24 324.431 1576.67 324.243 1577 323.912M1552.72 298.666L1559.39 314.333L1560.39 313.436H1544.96L1546 314.333L1552.63 298.666H1552.72ZM1541.51 324.054C1541.84 323.771 1542.12 323.346 1542.36 322.733L1545.39 315.701L1543.54 316.739H1561.76L1559.91 315.701L1562.94 322.733C1563.18 323.299 1563.51 323.724 1563.84 324.007C1564.17 324.29 1564.65 324.479 1565.21 324.479C1565.73 324.479 1566.11 324.384 1566.4 324.148C1566.68 323.912 1566.82 323.629 1566.87 323.204C1566.92 322.78 1566.82 322.355 1566.59 321.883L1554.95 295.645C1554.66 295.079 1554.33 294.607 1553.95 294.371C1553.57 294.088 1553.15 293.947 1552.67 293.947C1552.2 293.947 1551.73 294.088 1551.35 294.371C1550.92 294.654 1550.64 295.079 1550.35 295.645L1538.71 321.883C1538.48 322.355 1538.38 322.827 1538.48 323.204C1538.52 323.629 1538.71 323.912 1539 324.148C1539.28 324.384 1539.71 324.479 1540.23 324.479C1540.75 324.479 1541.13 324.337 1541.46 324.054M1518.65 297.439H1526.31C1528.54 297.439 1530.19 297.911 1531.33 298.902C1532.47 299.893 1533.03 301.355 1533.03 303.243C1533.03 305.131 1532.47 306.641 1531.33 307.632C1530.19 308.623 1528.54 309.142 1526.31 309.142H1518.65V297.439ZM1518.17 323.912C1518.51 323.535 1518.65 323.063 1518.65 322.402V312.351H1526.83C1530.05 312.351 1532.56 311.549 1534.31 309.991C1536.06 308.387 1536.91 306.169 1536.91 303.29C1536.91 300.412 1536.06 298.194 1534.31 296.636C1532.56 295.079 1530.05 294.277 1526.83 294.277H1516.71C1516.09 294.277 1515.57 294.466 1515.24 294.796C1514.86 295.126 1514.72 295.645 1514.72 296.306V322.497C1514.72 323.157 1514.91 323.629 1515.24 324.007C1515.57 324.384 1516.04 324.526 1516.71 324.526C1517.37 324.526 1517.89 324.337 1518.22 324.007M1479.56 324.007C1479.84 323.676 1480.03 323.204 1480.03 322.638V299.704H1478.99L1489.35 318.816C1489.54 319.146 1489.78 319.429 1490.06 319.618C1490.35 319.807 1490.68 319.901 1491.06 319.901C1491.48 319.901 1491.81 319.807 1492.05 319.618C1492.29 319.429 1492.52 319.146 1492.76 318.769L1502.98 299.704H1502.04V322.591C1502.04 323.157 1502.18 323.629 1502.46 323.959C1502.75 324.29 1503.22 324.479 1503.79 324.479C1504.36 324.479 1504.83 324.29 1505.11 323.959C1505.4 323.629 1505.59 323.157 1505.59 322.591V295.787C1505.59 295.174 1505.44 294.749 1505.11 294.419C1504.78 294.088 1504.36 293.947 1503.79 293.947C1503.27 293.947 1502.89 294.041 1502.6 294.23C1502.32 294.419 1502.04 294.749 1501.8 295.268L1490.39 316.645H1491.72L1480.31 295.268C1480.08 294.796 1479.79 294.466 1479.46 294.23C1479.18 294.041 1478.75 293.947 1478.23 293.947C1477.66 293.947 1477.24 294.135 1476.91 294.419C1476.58 294.749 1476.43 295.221 1476.43 295.787V322.591C1476.43 323.157 1476.58 323.629 1476.91 323.959C1477.24 324.29 1477.66 324.479 1478.23 324.479C1478.85 324.479 1479.27 324.29 1479.56 323.959M1447.24 317.919C1445.53 315.843 1444.68 312.917 1444.68 309.189C1444.68 306.688 1445.06 304.517 1445.82 302.771C1446.57 301.025 1447.71 299.657 1449.18 298.76C1450.64 297.863 1452.39 297.392 1454.43 297.392C1457.55 297.392 1459.97 298.43 1461.67 300.506C1463.37 302.582 1464.22 305.508 1464.22 309.236C1464.22 311.737 1463.85 313.861 1463.04 315.654C1462.28 317.447 1461.15 318.816 1459.68 319.76C1458.21 320.703 1456.51 321.175 1454.43 321.175C1451.35 321.175 1448.94 320.137 1447.24 318.014M1460.2 323.582C1461.91 322.874 1463.37 321.836 1464.56 320.467C1465.79 319.099 1466.69 317.494 1467.35 315.607C1468.01 313.719 1468.34 311.596 1468.34 309.236C1468.34 306.122 1467.77 303.432 1466.64 301.12C1465.5 298.807 1463.89 297.061 1461.81 295.834C1459.73 294.607 1457.27 293.947 1454.43 293.947C1452.3 293.947 1450.36 294.277 1448.66 294.985C1446.95 295.693 1445.48 296.731 1444.25 298.052C1443.02 299.373 1442.12 301.025 1441.46 302.913C1440.8 304.8 1440.47 306.924 1440.47 309.236C1440.47 312.351 1441.04 315.088 1442.17 317.353C1443.31 319.665 1444.92 321.458 1447 322.685C1449.08 323.959 1451.54 324.573 1454.38 324.573C1456.51 324.573 1458.45 324.243 1460.15 323.535M1430.15 323.865C1431.76 323.393 1433.13 322.638 1434.32 321.647C1434.69 321.364 1434.98 321.034 1435.07 320.656C1435.17 320.279 1435.21 319.901 1435.07 319.571C1434.98 319.24 1434.79 318.957 1434.55 318.721C1434.32 318.485 1433.98 318.391 1433.61 318.344C1433.23 318.344 1432.8 318.485 1432.33 318.769C1431.29 319.524 1430.2 320.09 1428.97 320.467C1427.74 320.845 1426.51 321.034 1425.13 321.034C1422.96 321.034 1421.11 320.562 1419.6 319.665C1418.08 318.721 1416.95 317.4 1416.14 315.607C1415.39 313.814 1414.96 311.69 1414.96 309.236C1414.96 306.782 1415.34 304.612 1416.14 302.866C1416.95 301.12 1418.08 299.798 1419.6 298.854C1421.11 297.911 1422.96 297.486 1425.13 297.486C1426.46 297.486 1427.74 297.675 1428.92 298.005C1430.1 298.335 1431.19 298.902 1432.19 299.704C1432.66 300.034 1433.09 300.176 1433.46 300.129C1433.84 300.129 1434.17 299.987 1434.46 299.751C1434.74 299.515 1434.93 299.232 1435.03 298.854C1435.12 298.477 1435.12 298.147 1434.98 297.722C1434.84 297.344 1434.55 296.967 1434.08 296.636C1432.94 295.74 1431.57 295.079 1430.01 294.607C1428.45 294.135 1426.79 293.899 1425.09 293.899C1422.86 293.899 1420.83 294.23 1419.08 294.938C1417.28 295.645 1415.81 296.684 1414.58 298.005C1413.35 299.326 1412.4 300.978 1411.79 302.866C1411.17 304.753 1410.8 306.877 1410.8 309.189C1410.8 312.351 1411.36 315.041 1412.5 317.353C1413.64 319.665 1415.29 321.458 1417.42 322.685C1419.55 323.959 1422.11 324.573 1425.09 324.573C1426.84 324.573 1428.54 324.337 1430.15 323.818M1384.67 324.101C1386.33 323.771 1387.75 323.393 1388.93 322.921C1389.31 322.78 1389.59 322.544 1389.78 322.213C1389.97 321.883 1390.02 321.506 1390.02 321.034V310.133C1390.02 309.614 1389.88 309.189 1389.55 308.906C1389.26 308.623 1388.84 308.481 1388.32 308.481H1380.79C1380.27 308.481 1379.89 308.623 1379.56 308.859C1379.28 309.095 1379.14 309.472 1379.14 309.991C1379.14 310.51 1379.28 310.841 1379.56 311.124C1379.85 311.407 1380.27 311.549 1380.79 311.549H1386.57V321.789L1387.42 319.665C1386.23 320.137 1385.05 320.467 1383.77 320.703C1382.5 320.939 1381.22 321.081 1379.89 321.081C1376.3 321.081 1373.55 320.09 1371.75 318.061C1369.91 316.032 1369.01 313.106 1369.01 309.236C1369.01 306.735 1369.39 304.564 1370.19 302.818C1371 301.025 1372.13 299.704 1373.69 298.807C1375.26 297.911 1377.15 297.439 1379.42 297.439C1380.93 297.439 1382.31 297.627 1383.58 298.005C1384.86 298.383 1386.05 298.996 1387.23 299.845C1387.61 300.081 1387.99 300.223 1388.36 300.176C1388.7 300.176 1389.03 299.987 1389.26 299.751C1389.5 299.515 1389.69 299.185 1389.74 298.854C1389.83 298.524 1389.83 298.194 1389.74 297.816C1389.64 297.486 1389.41 297.156 1389.07 296.92C1387.7 295.881 1386.19 295.126 1384.58 294.654C1382.92 294.183 1381.22 293.947 1379.47 293.947C1377.2 293.947 1375.16 294.277 1373.36 294.985C1371.56 295.693 1370.05 296.731 1368.77 298.052C1367.49 299.373 1366.55 301.025 1365.88 302.913C1365.22 304.8 1364.89 306.924 1364.89 309.283C1364.89 312.445 1365.46 315.182 1366.59 317.494C1367.73 319.807 1369.43 321.553 1371.66 322.78C1373.88 324.007 1376.63 324.62 1379.8 324.62C1381.41 324.62 1383.02 324.479 1384.67 324.148M1335.74 324.007C1336.07 323.676 1336.21 323.204 1336.21 322.591V299.421H1335.22L1353.25 323.299C1353.58 323.724 1353.86 324.007 1354.15 324.195C1354.43 324.384 1354.81 324.479 1355.28 324.479C1355.76 324.479 1356.14 324.29 1356.47 323.959C1356.75 323.629 1356.89 323.157 1356.89 322.544V295.834C1356.89 295.221 1356.75 294.749 1356.42 294.419C1356.09 294.088 1355.66 293.947 1355.05 293.947C1354.43 293.947 1354.01 294.135 1353.68 294.419C1353.34 294.749 1353.2 295.221 1353.2 295.834V318.957H1354.24L1336.17 295.079C1335.83 294.654 1335.55 294.371 1335.31 294.183C1335.08 294.041 1334.7 293.947 1334.23 293.947C1333.7 293.947 1333.28 294.135 1332.99 294.466C1332.66 294.796 1332.52 295.315 1332.52 295.929V322.544C1332.52 323.11 1332.66 323.582 1332.99 323.959C1333.33 324.29 1333.75 324.479 1334.32 324.479C1334.93 324.479 1335.36 324.29 1335.69 323.959M1322.91 323.959C1323.25 323.582 1323.39 323.11 1323.39 322.449V295.976C1323.39 295.315 1323.2 294.796 1322.87 294.466C1322.54 294.135 1322.02 293.947 1321.35 293.947C1320.69 293.947 1320.26 294.135 1319.89 294.466C1319.55 294.796 1319.37 295.315 1319.37 295.976V322.449C1319.37 323.11 1319.55 323.582 1319.89 323.959C1320.22 324.337 1320.69 324.479 1321.35 324.479C1322.02 324.479 1322.54 324.29 1322.87 323.959M1294 323.959C1294.33 323.582 1294.47 323.11 1294.47 322.449V310.133H1294.57L1308.62 323.252C1309.05 323.676 1309.43 324.007 1309.76 324.195C1310.09 324.384 1310.47 324.479 1310.99 324.479C1311.6 324.479 1312.03 324.337 1312.31 324.007C1312.6 323.724 1312.74 323.346 1312.69 322.874C1312.69 322.402 1312.41 321.978 1311.98 321.553L1297.26 307.773V309.755L1311.27 296.589C1311.65 296.212 1311.84 295.834 1311.94 295.41C1311.98 294.985 1311.89 294.654 1311.6 294.324C1311.32 294.041 1310.89 293.852 1310.33 293.852C1309.9 293.852 1309.52 293.947 1309.14 294.088C1308.76 294.277 1308.43 294.513 1308.01 294.89L1294.57 307.679H1294.47V295.834C1294.47 295.174 1294.28 294.702 1293.95 294.371C1293.62 294.041 1293.1 293.852 1292.44 293.852C1291.78 293.852 1291.35 294.041 1290.97 294.371C1290.64 294.702 1290.45 295.221 1290.45 295.834V322.355C1290.45 323.016 1290.64 323.488 1290.97 323.865C1291.3 324.243 1291.78 324.384 1292.44 324.384C1293.1 324.384 1293.62 324.195 1293.95 323.865M1260.26 323.865C1260.59 323.535 1260.73 323.063 1260.73 322.449V299.279H1259.74L1277.77 323.157C1278.1 323.582 1278.38 323.865 1278.67 324.054C1278.95 324.243 1279.33 324.337 1279.8 324.337C1280.28 324.337 1280.7 324.148 1280.99 323.818C1281.27 323.488 1281.41 323.016 1281.41 322.402V295.693C1281.41 295.079 1281.27 294.607 1280.94 294.277C1280.61 293.947 1280.18 293.805 1279.57 293.805C1278.95 293.805 1278.52 293.994 1278.19 294.277C1277.86 294.607 1277.72 295.079 1277.72 295.693V318.816H1278.81L1260.73 294.938C1260.4 294.513 1260.12 294.23 1259.88 294.041C1259.64 293.899 1259.26 293.805 1258.79 293.805C1258.27 293.805 1257.84 293.994 1257.56 294.324C1257.23 294.654 1257.09 295.174 1257.09 295.787V322.402C1257.09 322.969 1257.23 323.44 1257.56 323.818C1257.89 324.148 1258.32 324.337 1258.89 324.337C1259.5 324.337 1259.93 324.148 1260.26 323.818M1235.98 298.571L1242.65 314.238L1243.65 313.342H1228.22L1229.26 314.238L1235.89 298.571H1235.98ZM1224.76 323.959C1225.1 323.676 1225.38 323.252 1225.62 322.638L1228.64 315.607L1226.8 316.645H1245.02L1243.17 315.607L1246.2 322.638C1246.44 323.204 1246.77 323.629 1247.1 323.912C1247.43 324.195 1247.91 324.384 1248.47 324.384C1248.99 324.384 1249.37 324.29 1249.66 324.054C1249.94 323.818 1250.13 323.535 1250.13 323.11C1250.13 322.685 1250.08 322.261 1249.85 321.789L1238.2 295.551C1237.92 294.985 1237.59 294.513 1237.21 294.277C1236.83 293.994 1236.41 293.852 1235.89 293.852C1235.36 293.852 1234.94 293.994 1234.56 294.277C1234.18 294.56 1233.85 294.985 1233.57 295.551L1221.92 321.789C1221.69 322.261 1221.59 322.733 1221.69 323.11C1221.74 323.535 1221.92 323.818 1222.21 324.054C1222.49 324.29 1222.92 324.384 1223.44 324.384C1223.96 324.384 1224.39 324.243 1224.67 323.959M1197.22 297.203H1205.03C1207.21 297.203 1208.82 297.627 1209.9 298.477C1210.99 299.326 1211.56 300.6 1211.56 302.252C1211.56 303.904 1211.04 305.131 1209.9 306.027C1208.77 306.924 1207.16 307.301 1205.03 307.301H1197.22V297.203ZM1197.22 310.463H1205.69C1207.92 310.463 1209.57 310.888 1210.61 311.737C1211.7 312.587 1212.22 313.908 1212.22 315.701C1212.22 317.494 1211.7 318.816 1210.61 319.665C1209.53 320.515 1207.87 320.939 1205.69 320.939H1197.22V310.463ZM1206.12 324.054C1209.29 324.054 1211.75 323.346 1213.5 321.93C1215.25 320.515 1216.1 318.438 1216.1 315.796C1216.1 313.719 1215.49 312.068 1214.31 310.746C1213.08 309.472 1211.42 308.67 1209.34 308.434V309.047C1211.23 308.623 1212.7 307.773 1213.79 306.546C1214.87 305.319 1215.39 303.762 1215.39 301.922C1215.39 300.27 1215.02 298.854 1214.26 297.722C1213.5 296.542 1212.37 295.693 1210.9 295.032C1209.43 294.419 1207.68 294.088 1205.6 294.088H1195.52C1194.86 294.088 1194.29 294.277 1193.96 294.654C1193.58 295.032 1193.39 295.551 1193.39 296.212V321.93C1193.39 322.591 1193.58 323.11 1193.96 323.488C1194.33 323.865 1194.86 324.054 1195.52 324.054H1206.12ZM1171.38 324.054C1171.9 324.054 1172.33 323.912 1172.66 323.676C1172.94 323.393 1173.09 323.016 1173.09 322.449C1173.09 321.883 1172.94 321.506 1172.66 321.222C1172.38 320.939 1171.95 320.798 1171.38 320.798H1157.42V310.416H1170.48C1171 310.416 1171.43 310.274 1171.71 309.991C1172 309.708 1172.14 309.331 1172.14 308.764C1172.14 308.245 1172 307.868 1171.71 307.585C1171.43 307.301 1171 307.16 1170.48 307.16H1157.42V297.25H1171.38C1171.9 297.25 1172.33 297.108 1172.66 296.825C1172.94 296.542 1173.09 296.117 1173.09 295.598C1173.09 295.079 1172.94 294.702 1172.66 294.419C1172.38 294.135 1171.95 293.994 1171.38 293.994H1155.72C1155.06 293.994 1154.49 294.183 1154.16 294.56C1153.78 294.938 1153.59 295.457 1153.59 296.117V321.836C1153.59 322.497 1153.78 323.016 1154.16 323.393C1154.54 323.771 1155.06 323.959 1155.72 323.959H1171.38V324.054ZM1136.65 323.818C1136.98 323.44 1137.12 322.969 1137.12 322.308V297.486H1146.44C1147.01 297.486 1147.44 297.344 1147.72 297.061C1148 296.778 1148.15 296.353 1148.15 295.787C1148.15 295.221 1148 294.843 1147.72 294.56C1147.44 294.277 1147.01 294.135 1146.44 294.135H1123.82C1123.3 294.135 1122.88 294.277 1122.54 294.56C1122.21 294.843 1122.07 295.268 1122.07 295.787C1122.07 296.306 1122.21 296.731 1122.54 297.061C1122.88 297.392 1123.3 297.486 1123.82 297.486H1133.14V322.308C1133.14 322.969 1133.33 323.44 1133.67 323.818C1134 324.195 1134.52 324.337 1135.13 324.337C1135.75 324.337 1136.27 324.148 1136.6 323.818M1108.02 298.571L1114.69 314.238L1115.68 313.342H1100.25L1101.3 314.238L1107.92 298.571H1108.02ZM1096.8 323.959C1097.13 323.676 1097.41 323.252 1097.65 322.638L1100.68 315.607L1098.83 316.645H1117.05L1115.21 315.607L1118.24 322.638C1118.47 323.204 1118.81 323.629 1119.14 323.912C1119.47 324.195 1119.94 324.384 1120.51 324.384C1121.03 324.384 1121.41 324.29 1121.69 324.054C1121.98 323.818 1122.12 323.535 1122.17 323.11C1122.21 322.685 1122.12 322.261 1121.88 321.789L1110.24 295.551C1109.96 294.985 1109.62 294.513 1109.25 294.277C1108.87 293.994 1108.44 293.852 1107.97 293.852C1107.5 293.852 1107.02 293.994 1106.64 294.277C1106.22 294.56 1105.93 294.985 1105.65 295.551L1094.01 321.789C1093.77 322.261 1093.68 322.733 1093.77 323.11C1093.82 323.535 1094.01 323.818 1094.29 324.054C1094.58 324.29 1095 324.384 1095.52 324.384C1096.04 324.384 1096.42 324.243 1096.75 323.959M1082.27 323.818C1082.6 323.44 1082.74 322.969 1082.74 322.308V297.486H1092.07C1092.64 297.486 1093.06 297.344 1093.35 297.061C1093.63 296.778 1093.82 296.353 1093.82 295.787C1093.82 295.221 1093.68 294.843 1093.35 294.56C1093.06 294.277 1092.64 294.135 1092.07 294.135H1069.45C1068.88 294.135 1068.45 294.277 1068.17 294.56C1067.84 294.843 1067.7 295.268 1067.7 295.787C1067.7 296.306 1067.84 296.731 1068.17 297.061C1068.5 297.344 1068.88 297.486 1069.45 297.486H1078.77V322.308C1078.77 322.969 1078.96 323.44 1079.29 323.818C1079.62 324.195 1080.14 324.337 1080.8 324.337C1081.47 324.337 1081.94 324.148 1082.27 323.818ZM1058.47 323.818C1059.84 323.393 1061.02 322.827 1062.02 322.072C1062.96 321.317 1063.72 320.42 1064.24 319.382C1064.76 318.344 1065.05 317.164 1065.05 315.843C1065.05 313.766 1064.34 312.115 1062.96 310.888C1061.59 309.661 1059.46 308.764 1056.62 308.151L1052.17 307.254C1050.28 306.877 1048.96 306.31 1048.15 305.555C1047.35 304.8 1046.97 303.809 1046.97 302.488C1046.97 301.403 1047.25 300.459 1047.82 299.657C1048.39 298.854 1049.24 298.241 1050.28 297.769C1051.32 297.297 1052.6 297.108 1054.07 297.108C1055.53 297.108 1056.81 297.297 1057.99 297.627C1059.18 298.005 1060.36 298.571 1061.5 299.326C1061.92 299.609 1062.3 299.751 1062.68 299.704C1063.01 299.704 1063.34 299.562 1063.58 299.326C1063.81 299.09 1063.96 298.807 1064.05 298.477C1064.1 298.147 1064.1 297.769 1064 297.439C1063.91 297.061 1063.67 296.778 1063.34 296.542C1062.11 295.598 1060.69 294.89 1059.13 294.419C1057.57 293.947 1055.91 293.711 1054.16 293.711C1052.5 293.711 1051.04 293.947 1049.66 294.324C1048.29 294.749 1047.16 295.362 1046.16 296.165C1045.17 296.967 1044.41 297.911 1043.84 298.996C1043.32 300.081 1043.04 301.308 1043.04 302.63C1043.04 304.8 1043.7 306.546 1045.03 307.868C1046.35 309.189 1048.34 310.133 1050.99 310.652L1055.49 311.596C1057.52 311.973 1058.94 312.539 1059.79 313.247C1060.64 313.955 1061.07 314.899 1061.07 316.126C1061.07 317.589 1060.5 318.769 1059.32 319.665C1058.14 320.562 1056.29 321.034 1053.78 321.034C1052.03 321.034 1050.47 320.845 1049.05 320.467C1047.63 320.09 1046.26 319.429 1044.93 318.533C1044.51 318.25 1044.18 318.155 1043.84 318.202C1043.51 318.25 1043.23 318.438 1042.94 318.674C1042.71 318.91 1042.57 319.24 1042.47 319.571C1042.42 319.901 1042.47 320.279 1042.61 320.656C1042.76 321.034 1043.04 321.317 1043.42 321.6C1044.32 322.213 1045.31 322.733 1046.4 323.157C1047.49 323.582 1048.67 323.912 1049.95 324.101C1051.18 324.337 1052.5 324.431 1053.83 324.431C1055.58 324.431 1057.14 324.243 1058.51 323.818M1001.25 297.486H1007.4C1011.19 297.486 1014.08 298.43 1015.97 300.364C1017.86 302.299 1018.86 305.178 1018.86 309.047C1018.86 310.982 1018.62 312.728 1018.15 314.191C1017.67 315.654 1016.96 316.881 1015.97 317.825C1015.02 318.769 1013.84 319.524 1012.42 319.996C1011 320.467 1009.34 320.703 1007.4 320.703H1001.25V297.486ZM1007.64 324.054C1010.1 324.054 1012.28 323.724 1014.17 323.063C1016.06 322.402 1017.67 321.458 1018.95 320.184C1020.23 318.91 1021.27 317.353 1021.93 315.465C1022.6 313.578 1022.97 311.454 1022.97 309.047C1022.97 304.187 1021.65 300.506 1019 297.958C1016.35 295.41 1012.56 294.088 1007.64 294.088H999.407C998.744 294.088 998.224 294.277 997.845 294.654C997.466 295.032 997.277 295.551 997.277 296.212V321.93C997.277 322.591 997.466 323.11 997.845 323.488C998.224 323.865 998.744 324.054 999.407 324.054H1007.64ZM967.037 323.865C967.368 323.535 967.51 323.063 967.51 322.449V299.279H966.516L984.547 323.157C984.878 323.582 985.162 323.865 985.446 324.054C985.73 324.243 986.109 324.337 986.582 324.337C987.055 324.337 987.434 324.148 987.765 323.818C988.049 323.488 988.238 323.016 988.238 322.402V295.693C988.238 295.079 988.096 294.607 987.765 294.277C987.434 293.947 987.008 293.805 986.393 293.805C985.777 293.805 985.351 293.994 985.02 294.277C984.689 294.607 984.547 295.079 984.547 295.693V318.816H985.635L967.558 294.938C967.226 294.513 966.942 294.23 966.706 294.041C966.469 293.899 966.09 293.805 965.617 293.805C965.097 293.805 964.718 293.994 964.387 294.324C964.056 294.654 963.914 295.174 963.914 295.787V322.402C963.914 322.969 964.056 323.44 964.387 323.818C964.718 324.148 965.144 324.337 965.712 324.337C966.327 324.337 966.753 324.148 967.084 323.818M954.449 324.007C955.017 324.007 955.443 323.865 955.726 323.582C956.01 323.299 956.2 322.874 956.2 322.308C956.2 321.742 956.058 321.364 955.726 321.081C955.443 320.798 955.017 320.656 954.449 320.656H940.488V321.789L949.338 312.492C950.568 311.218 951.562 309.991 952.319 308.812C953.124 307.632 953.691 306.452 954.07 305.319C954.449 304.187 954.685 303.007 954.685 301.827C954.685 300.129 954.307 298.618 953.597 297.439C952.84 296.259 951.799 295.315 950.379 294.702C948.959 294.088 947.255 293.758 945.22 293.758C943.611 293.758 942.002 293.994 940.488 294.513C938.974 295.032 937.601 295.74 936.466 296.636C936.087 296.872 935.85 297.203 935.756 297.58C935.661 297.958 935.614 298.288 935.756 298.618C935.85 298.949 936.04 299.232 936.276 299.468C936.513 299.704 936.797 299.845 937.175 299.893C937.507 299.893 937.885 299.798 938.264 299.515C939.305 298.713 940.393 298.147 941.482 297.769C942.57 297.392 943.706 297.203 944.937 297.203C946.877 297.203 948.344 297.627 949.338 298.477C950.331 299.326 950.852 300.6 950.852 302.252C950.852 303.573 950.521 304.848 949.906 306.122C949.29 307.396 948.249 308.764 946.829 310.274L937.507 320.231C937.175 320.562 936.891 320.892 936.749 321.27C936.56 321.6 936.513 321.93 936.513 322.308C936.513 322.874 936.655 323.346 936.986 323.629C937.317 323.96 937.838 324.101 938.5 324.101H954.543L954.449 324.007ZM927.001 324.007C927.569 324.007 927.995 323.865 928.278 323.582C928.562 323.299 928.752 322.874 928.752 322.308C928.752 321.742 928.61 321.364 928.278 321.081C927.995 320.798 927.569 320.656 927.001 320.656H913.04V321.789L921.89 312.492C923.12 311.218 924.114 309.991 924.871 308.812C925.628 307.632 926.243 306.452 926.622 305.319C927.001 304.187 927.237 303.007 927.237 301.827C927.237 300.129 926.859 298.618 926.149 297.439C925.392 296.259 924.351 295.315 922.931 294.702C921.511 294.041 919.807 293.758 917.772 293.758C916.163 293.758 914.602 293.994 913.04 294.513C911.526 295.032 910.153 295.74 909.017 296.636C908.639 296.872 908.402 297.203 908.308 297.58C908.213 297.958 908.166 298.288 908.308 298.618C908.45 298.949 908.592 299.232 908.828 299.468C909.065 299.704 909.349 299.845 909.68 299.893C910.011 299.893 910.39 299.798 910.769 299.515C911.81 298.713 912.898 298.147 913.987 297.769C915.075 297.392 916.211 297.203 917.441 297.203C919.382 297.203 920.849 297.627 921.842 298.477C922.836 299.326 923.357 300.6 923.357 302.252C923.357 303.573 923.025 304.848 922.41 306.122C921.795 307.396 920.754 308.764 919.334 310.274L910.011 320.231C909.68 320.562 909.396 320.892 909.254 321.27C909.065 321.6 909.017 321.93 909.017 322.308C909.017 322.874 909.159 323.346 909.491 323.629C909.822 323.96 910.343 324.101 911.005 324.101H927.048L927.001 324.007ZM879.724 322.213V308.481L878.872 311.124L889.425 296.542C889.757 296.07 889.946 295.645 889.899 295.221C889.899 294.796 889.709 294.466 889.425 294.183C889.141 293.899 888.715 293.758 888.195 293.758C887.722 293.758 887.296 293.852 887.012 294.041C886.68 294.23 886.397 294.56 886.065 295.032L877.31 307.113H878.304L869.549 295.032C869.218 294.607 868.887 294.277 868.555 294.041C868.224 293.852 867.845 293.758 867.42 293.758C866.899 293.758 866.473 293.899 866.142 294.183C865.811 294.466 865.669 294.843 865.669 295.268C865.669 295.693 865.763 296.117 866.047 296.542L876.6 311.124L875.749 308.481V322.213C875.749 322.874 875.938 323.393 876.269 323.771C876.6 324.148 877.074 324.29 877.736 324.29C879.061 324.29 879.724 323.582 879.724 322.213ZM842.196 297.156H850.004C852.181 297.156 853.79 297.58 854.879 298.43C855.967 299.279 856.535 300.553 856.535 302.205C856.535 303.857 855.967 305.083 854.879 305.98C853.79 306.877 852.181 307.254 850.004 307.254H842.196V297.156ZM842.196 310.416H850.667C852.891 310.416 854.547 310.841 855.589 311.69C856.677 312.54 857.198 313.861 857.198 315.654C857.198 317.447 856.677 318.769 855.589 319.618C854.5 320.467 852.844 320.892 850.667 320.892H842.196V310.416ZM851.093 324.007C854.263 324.007 856.724 323.299 858.475 321.883C860.226 320.467 861.078 318.391 861.078 315.748C861.078 313.672 860.463 312.02 859.28 310.699C858.049 309.425 856.393 308.623 854.311 308.387V309C856.204 308.576 857.671 307.726 858.759 306.499C859.848 305.272 860.368 303.715 860.368 301.875C860.368 300.223 859.99 298.807 859.233 297.675C858.475 296.495 857.34 295.645 855.872 294.985C854.405 294.371 852.654 294.041 850.572 294.041H840.492C839.83 294.041 839.262 294.23 838.93 294.607C838.552 294.985 838.363 295.504 838.363 296.165V321.883C838.363 322.544 838.552 323.063 838.93 323.44C839.309 323.818 839.83 324.007 840.492 324.007H851.093ZM795.629 297.439H801.781C805.567 297.439 808.454 298.382 810.347 300.317C812.24 302.252 813.233 305.131 813.233 309C813.233 310.935 812.997 312.681 812.523 314.144C812.05 315.607 811.34 316.834 810.394 317.778C809.447 318.721 808.264 319.476 806.845 319.948C805.425 320.42 803.769 320.656 801.828 320.656H795.676V297.439H795.629ZM802.018 324.007C804.478 324.007 806.655 323.676 808.548 323.016C810.441 322.355 812.05 321.411 813.328 320.137C814.606 318.863 815.647 317.306 816.309 315.418C816.972 313.53 817.351 311.407 817.351 309C817.351 304.14 816.026 300.459 813.375 297.911C810.725 295.362 806.939 294.041 802.018 294.041H793.783C793.121 294.041 792.553 294.23 792.221 294.607C791.843 294.985 791.654 295.504 791.654 296.165V321.883C791.654 322.544 791.843 323.063 792.221 323.44C792.6 323.818 793.121 324.007 793.783 324.007H802.018ZM782.615 324.007C783.135 324.007 783.561 323.865 783.892 323.629C784.176 323.346 784.318 322.969 784.318 322.402C784.318 321.836 784.176 321.458 783.892 321.175C783.608 320.892 783.183 320.751 782.615 320.751H768.654V310.369H781.715C782.236 310.369 782.662 310.227 782.946 309.944C783.23 309.661 783.372 309.283 783.372 308.717C783.372 308.198 783.23 307.82 782.946 307.537C782.662 307.254 782.236 307.113 781.715 307.113H768.654V297.203H782.615C783.135 297.203 783.561 297.061 783.892 296.778C784.176 296.495 784.318 296.07 784.318 295.551C784.318 295.032 784.176 294.654 783.892 294.371C783.608 294.088 783.183 293.947 782.615 293.947H766.95C766.288 293.947 765.72 294.135 765.389 294.513C765.01 294.89 764.821 295.41 764.821 296.07V321.789C764.821 322.449 765.01 322.968 765.389 323.346C765.767 323.724 766.288 323.912 766.95 323.912H782.615V324.007ZM738.225 297.297H745.749C748.021 297.297 749.724 297.769 750.86 298.713C751.996 299.657 752.564 301.025 752.564 302.866C752.564 304.706 751.996 306.074 750.86 307.065C749.724 308.009 748.021 308.481 745.749 308.481H738.225V297.297ZM737.751 323.771C738.083 323.393 738.225 322.921 738.225 322.261V311.501H743.336C744.661 311.501 745.749 311.69 746.554 312.068C747.358 312.445 748.068 313.247 748.683 314.427L753.274 322.827C753.51 323.299 753.842 323.676 754.173 323.912C754.504 324.148 754.977 324.29 755.545 324.29C756.113 324.29 756.492 324.148 756.776 323.865C757.06 323.582 757.202 323.252 757.249 322.827C757.249 322.402 757.154 321.977 756.918 321.506L752.99 314.333C752.327 313.106 751.617 312.162 750.766 311.596C749.914 311.029 748.92 310.746 747.784 310.746H746.838L746.412 311.313C748.541 311.313 750.34 310.982 751.854 310.274C753.368 309.614 754.504 308.623 755.309 307.349C756.113 306.074 756.492 304.517 756.492 302.677C756.492 299.893 755.64 297.769 753.889 296.259C752.138 294.749 749.63 293.994 746.412 293.994H736.284C735.669 293.994 735.148 294.183 734.817 294.513C734.486 294.843 734.297 295.362 734.297 296.023V322.213C734.297 322.874 734.486 323.346 734.817 323.724C735.148 324.101 735.622 324.243 736.284 324.243C736.947 324.243 737.467 324.054 737.799 323.724M725.305 323.959C725.826 323.959 726.252 323.818 726.583 323.582C726.867 323.299 727.009 322.921 727.009 322.355C727.009 321.789 726.867 321.411 726.583 321.128C726.299 320.845 725.873 320.703 725.305 320.703H711.344V310.322H724.406C724.926 310.322 725.352 310.18 725.636 309.897C725.92 309.614 726.062 309.236 726.062 308.67C726.062 308.151 725.92 307.773 725.636 307.49C725.352 307.207 724.926 307.065 724.406 307.065H711.344V297.156H725.305C725.826 297.156 726.252 297.014 726.583 296.731C726.867 296.448 727.009 296.023 727.009 295.504C727.009 294.985 726.867 294.607 726.583 294.324C726.299 294.041 725.873 293.899 725.305 293.899H709.641C708.978 293.899 708.41 294.088 708.079 294.466C707.701 294.843 707.511 295.362 707.511 296.023V321.742C707.511 322.402 707.701 322.921 708.079 323.299C708.458 323.676 708.978 323.865 709.641 323.865H725.305V323.959ZM669.794 323.818C670.125 323.535 670.409 323.11 670.646 322.497L678.975 298.666H678.028L686.31 322.449C686.547 323.063 686.831 323.535 687.162 323.818C687.493 324.101 687.966 324.243 688.582 324.243C689.149 324.243 689.623 324.101 689.954 323.818C690.285 323.535 690.569 323.11 690.758 322.497L700.129 296.023C700.365 295.362 700.318 294.796 699.987 294.371C699.655 293.947 699.182 293.711 698.52 293.711C697.952 293.711 697.526 293.852 697.195 294.135C696.863 294.419 696.627 294.843 696.437 295.362L687.777 320.42H689.149L680.536 295.504C680.347 294.89 680.063 294.419 679.779 294.135C679.495 293.852 679.069 293.711 678.501 293.711C677.934 293.711 677.555 293.852 677.271 294.135C676.94 294.419 676.703 294.843 676.467 295.457L667.712 320.42H669.226L660.66 295.362C660.471 294.796 660.187 294.324 659.903 294.088C659.572 293.852 659.146 293.711 658.625 293.711C657.868 293.711 657.3 293.947 656.969 294.371C656.638 294.843 656.59 295.362 656.874 296.023L666.15 322.449C666.387 323.063 666.67 323.535 667.002 323.818C667.333 324.101 667.806 324.243 668.374 324.243C668.942 324.243 669.368 324.101 669.699 323.818M630.136 317.683C628.433 315.607 627.581 312.681 627.581 308.953C627.581 306.452 627.959 304.281 628.716 302.535C629.474 300.789 630.609 299.421 632.076 298.524C633.544 297.627 635.295 297.156 637.329 297.156C640.453 297.156 642.866 298.194 644.57 300.27C646.274 302.346 647.126 305.272 647.126 309C647.126 311.501 646.747 313.625 645.942 315.418C645.185 317.211 644.05 318.58 642.582 319.524C641.115 320.467 639.364 320.939 637.329 320.939C634.253 320.939 631.84 319.901 630.136 317.778M643.103 323.346C644.807 322.638 646.274 321.6 647.457 320.231C648.687 318.863 649.586 317.259 650.249 315.371C650.912 313.483 651.243 311.36 651.243 309C651.243 305.886 650.675 303.196 649.539 300.884C648.403 298.571 646.794 296.825 644.712 295.598C642.63 294.371 640.169 293.711 637.329 293.711C635.2 293.711 633.26 294.041 631.556 294.749C629.852 295.457 628.385 296.495 627.155 297.816C625.924 299.138 625.025 300.789 624.363 302.677C623.7 304.564 623.369 306.688 623.369 309C623.369 312.115 623.937 314.852 625.072 317.117C626.208 319.429 627.817 321.222 629.9 322.449C631.982 323.724 634.443 324.337 637.282 324.337C639.412 324.337 641.352 324.007 643.056 323.299M599.754 297.25H607.421C609.645 297.25 611.301 297.722 612.437 298.713C613.573 299.704 614.141 301.167 614.141 303.054C614.141 304.942 613.573 306.452 612.437 307.443C611.301 308.434 609.645 308.953 607.421 308.953H599.754V297.25ZM599.281 323.724C599.612 323.346 599.754 322.874 599.754 322.213V312.162H607.941C611.159 312.162 613.667 311.36 615.418 309.802C617.169 308.198 618.021 305.98 618.021 303.102C618.021 300.223 617.169 298.005 615.418 296.448C613.667 294.89 611.207 294.088 607.941 294.088H597.814C597.199 294.088 596.678 294.277 596.347 294.607C596.015 294.938 595.826 295.457 595.826 296.117V322.308C595.826 322.969 596.015 323.44 596.347 323.818C596.678 324.195 597.151 324.337 597.814 324.337C598.476 324.337 598.997 324.148 599.328 323.818" fill="#502BE5"/>
</svg>
